<?xml version="1.0" encoding="utf-8"?>
<!-- Generator: Adobe Illustrator 27.3.1, SVG Export Plug-In . SVG Version: 6.00 Build 0)  -->
<svg version="1.1" id="レイヤー_1" xmlns="http://www.w3.org/2000/svg" xmlns:xlink="http://www.w3.org/1999/xlink" x="0px"
	 y="0px" width="300px" height="300px" viewBox="55 55 190 190" style="enable-background:new 0 0 300 300;" xml:space="preserve">
<style type="text/css">
	.st0{fill:#333333;}
	.st1{fill:none;stroke:#333333;stroke-width:8;stroke-linecap:round;stroke-linejoin:round;stroke-miterlimit:10;}
</style>
<path class="st0" d="M150,80.58c-38.28,0-69.42,31.14-69.42,69.42c0,38.28,31.14,69.42,69.42,69.42c38.28,0,69.42-31.14,69.42-69.42
	C219.42,111.72,188.28,80.58,150,80.58z M185.46,207.25c-12.74,8.1-24.86,10.81-35.37,10.81c-20.98,0-35.54-10.79-35.76-10.95
	c-1.12-0.85-1.5-2.37-0.91-3.64l15.73-34.11c-8.92-6.6-14.16-16.93-14.16-28.12c0-19.31,15.71-35.01,35.01-35.01
	s35.01,15.71,35.01,35.01c0,11.2-5.25,21.53-14.17,28.12l15.73,34.11C187.2,204.83,186.73,206.45,185.46,207.25z"/>
<circle class="st1" cx="150" cy="150" r="65.42"/>
</svg>
